<?xml version="1.0" encoding="utf-8"?>
<!-- Generator: Adobe Illustrator 24.1.2, SVG Export Plug-In . SVG Version: 6.00 Build 0)  -->
<svg version="1.1" id="Capa_1" xmlns="http://www.w3.org/2000/svg" xmlns:xlink="http://www.w3.org/1999/xlink" x="0px" y="0px"
	 viewBox="0 0 125.07 125.1" style="enable-background:new 0 0 125.07 125.1;" xml:space="preserve">
<style type="text/css">
	.st0{fill:#009F93;}
	.st1{fill:#FFFFFF;}
	.st2{fill:#DC0B1A;}
	.st3{fill:#F49923;}
	.st4{clip-path:url(#SVGID_2_);}
	.st5{fill:#812A2E;}
	.st6{fill:#F4A07F;}
	.st7{fill:#1A1A1A;}
	.st8{opacity:0.5;}
	.st9{fill:#D45C48;}
	.st10{fill:#842A2E;}
	.st11{clip-path:url(#SVGID_4_);fill:#E7E6E6;}
	.st12{clip-path:url(#SVGID_4_);fill:#E00917;}
	.st13{clip-path:url(#SVGID_4_);fill:none;stroke:#E00917;stroke-width:3;stroke-miterlimit:10;}
	.st14{fill:#666666;}
	.st15{clip-path:url(#SVGID_6_);}
	.st16{fill:#E6E6E6;}
</style>
<g>
	<path class="st0" d="M92.87,108.46c-3.64,0-7.28-0.03-10.92,0.03c-0.61,0.01-1.35,0.32-1.78,0.75c-4.73,4.65-9.4,9.36-14.09,14.05
		c-2.42,2.42-4.64,2.42-7.06-0.01c-4.66-4.66-9.3-9.34-14-13.95c-0.49-0.48-1.32-0.83-2-0.84c-7.11-0.06-14.22-0.03-21.33-0.04
		c-3.43,0-5-1.57-5-5.02c0-7.11,0.02-14.22-0.04-21.33c-0.01-0.68-0.36-1.51-0.84-2c-4.65-4.73-9.36-9.4-14.05-14.09
		c-2.33-2.33-2.34-4.57-0.03-6.88c4.72-4.72,9.46-9.43,14.14-14.19c0.45-0.46,0.78-1.25,0.78-1.89c0.05-7.15,0.03-14.31,0.04-21.46
		c0-3.34,1.59-4.91,4.96-4.92c7.07,0,14.13-0.02,21.2,0.02c0.93,0,1.6-0.24,2.27-0.92c4.59-4.66,9.23-9.28,13.86-13.91
		c2.5-2.5,4.67-2.49,7.15,0.01c4.65,4.67,9.28,9.36,13.96,13.99c0.46,0.45,1.25,0.8,1.89,0.8c7.07,0.05,14.13,0.03,21.2,0.01
		c3.7-0.01,5.25,1.49,5.26,5.16c0,6.98,0.02,13.96-0.02,20.94c0,0.98,0.25,1.69,0.96,2.39c4.6,4.53,9.15,9.12,13.72,13.68
		c2.65,2.65,2.64,4.77-0.03,7.44c-4.6,4.6-9.21,9.18-13.77,13.82c-0.48,0.48-0.82,1.33-0.83,2.01c-0.06,7.11-0.03,14.22-0.04,21.33
		c0,3.42-1.59,5-5.03,5C99.89,108.46,96.38,108.46,92.87,108.46z M25.01,100.11c0.64,0,1.1,0,1.57,0c6.07,0,12.14,0.06,18.2-0.03
		c2.03-0.03,3.54,0.63,4.94,2.07c3.9,4.01,7.89,7.92,11.85,11.87c0.32,0.32,0.66,0.62,1.04,0.97c4.39-4.4,8.73-8.7,13.01-13.06
		c1.24-1.26,2.59-1.85,4.38-1.84c6.15,0.06,12.31,0.02,18.46,0.02c0.5,0,1,0,1.62,0c0-0.67,0-1.14,0-1.61
		c0-6.24,0.02-12.48-0.02-18.73c-0.01-1.58,0.51-2.83,1.64-3.93c2.94-2.88,5.83-5.82,8.74-8.73c1.5-1.5,3-2.99,4.67-4.66
		c-0.45-0.36-0.86-0.62-1.2-0.96c-4.05-4.04-8.07-8.11-12.14-12.13c-1.19-1.18-1.73-2.49-1.72-4.17c0.05-6.2,0.02-12.4,0.02-18.6
		c0-0.5,0-1,0-1.59c-0.67,0-1.14,0-1.62,0c-6.11,0.01-12.22-0.03-18.33,0.05c-1.87,0.02-3.3-0.56-4.61-1.9
		c-4.28-4.36-8.64-8.64-13.23-13.21c-0.27,0.39-0.48,0.85-0.81,1.18c-4.06,4.09-8.15,8.15-12.21,12.25
		c-1.1,1.11-2.35,1.65-3.94,1.63c-6.28-0.04-12.57-0.02-18.85-0.02c-0.46,0-0.92,0-1.48,0c0,0.65,0,1.12,0,1.59
		c0,6.29-0.02,12.57,0.01,18.86c0.01,1.49-0.48,2.68-1.53,3.71c-2.17,2.12-4.31,4.27-6.45,6.42c-2.29,2.3-4.58,4.6-7.05,7.1
		c0.4,0.32,0.8,0.58,1.13,0.91c3.99,3.98,7.94,8,11.97,11.93c1.37,1.34,2.01,2.81,1.94,4.73c-0.11,2.81-0.03,5.63-0.03,8.45
		C25.01,92.45,25.01,96.17,25.01,100.11z"/>
	<path class="st0" d="M37.47,83.43c0.01-1.35,0.67-2.36,1.59-3.29c7.43-7.41,14.84-14.83,22.26-22.25
		c6.22-6.22,12.45-12.44,18.66-18.68c1.13-1.14,2.37-1.91,4.02-1.68c3.17,0.43,4.68,4.1,2.75,6.66c-0.26,0.34-0.58,0.64-0.88,0.95
		C72.27,58.75,58.65,72.36,45.05,85.98c-1.32,1.32-2.77,2.06-4.67,1.47C38.61,86.89,37.45,85.29,37.47,83.43z"/>
	<path class="st0" d="M79.19,66.74c6.83-0.02,12.52,5.65,12.54,12.48c0.02,6.81-5.67,12.51-12.49,12.54
		c-6.79,0.03-12.49-5.65-12.53-12.5C66.68,72.43,72.34,66.75,79.19,66.74z M75.08,79.29c0.03,2.34,1.82,4.11,4.13,4.11
		c2.35,0,4.21-1.87,4.18-4.22c-0.03-2.36-1.89-4.14-4.28-4.09C76.76,75.15,75.04,76.94,75.08,79.29z"/>
	<path class="st0" d="M58.35,45.86c0.02,6.9-5.55,12.5-12.45,12.5c-6.86,0-12.55-5.64-12.55-12.45c0-6.8,5.7-12.53,12.5-12.55
		C52.67,33.34,58.32,38.99,58.35,45.86z M50.01,45.86c-0.02-2.33-1.81-4.14-4.1-4.16c-2.32-0.01-4.23,1.89-4.22,4.22
		c0.01,2.34,1.89,4.14,4.28,4.11C48.32,49.99,50.03,48.23,50.01,45.86z"/>
</g>
</svg>
