<?xml version="1.0" encoding="utf-8"?>
<!-- Generator: Adobe Illustrator 24.1.2, SVG Export Plug-In . SVG Version: 6.00 Build 0)  -->
<svg version="1.1" id="Capa_1" preserveAspectRatio="none" xmlns="http://www.w3.org/2000/svg" xmlns:xlink="http://www.w3.org/1999/xlink" x="0px" y="0px"
	 viewBox="0 0 1126 2298" style="enable-background:new 0 0 1126 2298;" xml:space="preserve" >
<style type="text/css">
	.st0{fill:#009F93;}
	.st1{fill:#FFFFFF;}
	.st2{fill:#DC0B1A;}
	.st3{fill:#F49923;}
	.st4{clip-path:url(#SVGID_2_);}
	.st5{fill:#812A2E;}
	.st6{fill:#F4A07F;}
	.st7{fill:#1A1A1A;}
	.st8{opacity:0.5;}
	.st9{fill:#D45C48;}
	.st10{fill:#842A2E;}
	.st11{clip-path:url(#SVGID_4_);fill:#E7E6E6;}
	.st12{clip-path:url(#SVGID_4_);fill:#E00917;}
	.st13{clip-path:url(#SVGID_4_);fill:none;stroke:#E00917;stroke-width:3;stroke-miterlimit:10;}
	.st14{fill:#666666;}
	.st15{clip-path:url(#SVGID_6_);}
	.st16{fill:#E6E6E6;}
</style>
<g>
	<defs>
		<rect id="SVGID_3_" width="1126" height="2298"/>
	</defs>
	<use xlink:href="#SVGID_3_"  style="overflow:visible;fill:#F2F2F2;"/>
	<clipPath id="SVGID_2_">
		<use xlink:href="#SVGID_3_"  style="overflow:visible;"/>
	</clipPath>
	<path style="clip-path:url(#SVGID_2_);fill:#E7E6E6;" d="M-10.28,674.83c0,0,52.65,237.6,452.25,152.55s699.3-216,699.3-216V-4
		H-10.28V674.83z"/>
	<path style="clip-path:url(#SVGID_2_);fill:#E00917;" d="M447.2,1977.44c-11.1,4.66-43.94-21.1-54.48-30.86
		c-6.33-5.85-14.58,3.67-8.24,9.52c11.35,10.5,50.07,40.28,67.35,32.62c17.56-6.99,23.37-55.49,23.84-70.95
		c0.23-8.61-12.32-9.39-12.57-0.77C462.68,1931.36,458.29,1972.78,447.2,1977.44z"/>
	<path style="clip-path:url(#SVGID_2_);fill:none;stroke:#E00917;stroke-width:3;stroke-miterlimit:10;" d="M0,1734
		c0,0,753.5,32.5,316.5,564.5"/>
	<path style="clip-path:url(#SVGID_2_);fill:#E00917;" d="M1146,2249c0,0-350.12-415-352.36-596.22
		c-2.24-181.21,98.44-253.92,176.18-293.07C1047.56,1320.56,1146,1287,1146,1287V2249z"/>
</g>
</svg>
