<?xml version="1.0" encoding="utf-8"?>
<!-- Generator: Adobe Illustrator 24.1.2, SVG Export Plug-In . SVG Version: 6.00 Build 0)  -->
<svg version="1.1" id="Capa_1" xmlns="http://www.w3.org/2000/svg" xmlns:xlink="http://www.w3.org/1999/xlink" x="0px" y="0px"
	 viewBox="0 0 1080 629.83" style="enable-background:new 0 0 1080 629.83;" xml:space="preserve">
<style type="text/css">
	.st0{fill:#009F93;}
	.st1{fill:#FFFFFF;}
	.st2{fill:#DC0B1A;}
	.st3{fill:#F49923;}
	.st4{clip-path:url(#SVGID_2_);}
	.st5{fill:#812A2E;}
	.st6{fill:#F4A07F;}
	.st7{fill:#1A1A1A;}
	.st8{opacity:0.5;}
	.st9{fill:#D45C48;}
	.st10{fill:#842A2E;}
	.st11{clip-path:url(#SVGID_4_);fill:#E7E6E6;}
	.st12{clip-path:url(#SVGID_4_);fill:#E00917;}
	.st13{clip-path:url(#SVGID_4_);fill:none;stroke:#E00917;stroke-width:3;stroke-miterlimit:10;}
	.st14{fill:#666666;}
	.st15{clip-path:url(#SVGID_6_);}
	.st16{fill:#E6E6E6;}
</style>
<g>
	<defs>
		<path id="SVGID_5_" d="M980,629.83H100c-55.23,0-100-44.77-100-100V100C0,44.77,44.77,0,100,0h880c55.23,0,100,44.77,100,100
			v429.83C1080,585.05,1035.23,629.83,980,629.83z"/>
	</defs>
	<use xlink:href="#SVGID_5_"  style="overflow:visible;fill:#F8B233;"/>
	<clipPath id="SVGID_2_">
		<use xlink:href="#SVGID_5_"  style="overflow:visible;"/>
	</clipPath>
	<g class="st4">
		<g>
			<path class="st16" d="M1070.63,0.97c-2.01,12.47-9.8,24.38-25.14,31.71c-92.17,44.14-394.77,156.62-488.94,74.56
				C530.4,86.16,515.47,47.77,508.15,1l77.55-0.03c4.45,19.86,11.58,35.23,22.11,44.06C651.34,81.51,795.12,41.71,904.97,1
				L1070.63,0.97z"/>
		</g>
		<g>
			<path class="st16" d="M883.97,253.73c-4.5,8.99,15.15,37.78,22.71,47.09c4.52,5.6-3.86,11.95-8.39,6.34
				c-8.12-10.04-30.8-43.94-23.47-57.91c6.79-14.24,47.52-16.42,60.43-15.95c7.19,0.28,7.15,10.78-0.05,10.52
				C923.21,243.36,888.47,244.74,883.97,253.73z"/>
		</g>
		<g>
			<path class="st16" d="M1079.41,307c-80.52-4.8-150.63-23.88-208.37-56.71c-46.23-26.28-84.68-61.38-114.28-104.31
				C706.38,72.88,699.07,1.36,699.01,0.64l2.99-0.28c0.07,0.71,7.33,71.57,57.32,144.03c46.12,66.85,139.12,148.8,320.27,159.61
				L1079.41,307z"/>
		</g>
	</g>
</g>
</svg>
