<?xml version="1.0" encoding="utf-8"?>
<!-- Generator: Adobe Illustrator 24.1.2, SVG Export Plug-In . SVG Version: 6.00 Build 0)  -->
<svg version="1.1" id="Capa_1" xmlns="http://www.w3.org/2000/svg" xmlns:xlink="http://www.w3.org/1999/xlink" x="0px" y="0px"
	 viewBox="0 0 137.86 129" style="enable-background:new 0 0 137.86 129;" xml:space="preserve">
<style type="text/css">
	.st0{fill:#009F93;}
	.st1{fill:#FFFFFF;}
	.st2{fill:#DC0B1A;}
	.st3{fill:#F49923;}
	.st4{clip-path:url(#SVGID_2_);}
	.st5{fill:#812A2E;}
	.st6{fill:#F4A07F;}
	.st7{fill:#1A1A1A;}
	.st8{opacity:0.5;}
	.st9{fill:#D45C48;}
	.st10{fill:#842A2E;}
	.st11{clip-path:url(#SVGID_4_);fill:#E7E6E6;}
	.st12{clip-path:url(#SVGID_4_);fill:#E00917;}
	.st13{clip-path:url(#SVGID_4_);fill:none;stroke:#E00917;stroke-width:3;stroke-miterlimit:10;}
	.st14{fill:#666666;}
	.st15{clip-path:url(#SVGID_6_);}
	.st16{fill:#E6E6E6;}
</style>
<g>
	<path class="st0" d="M119.14,41.98c14.24,29.5,2.24,62.17-21.47,77.36c-23.96,15.35-54.79,12.19-75.38-7.84
		C2.62,92.36-1.3,60.86,13.05,37.46c3.97-6.47,8.89-12.07,14.91-16.7c5.98-4.59,12.59-7.95,19.82-10.06
		c7.27-2.12,14.69-2.91,22.26-2.25c7.5,0.65,14.62,2.66,21.29,5.87c4.43-4.39,8.77-8.69,13.1-12.99c2.41-2.4,4.7-2.4,7.12,0.02
		c2.38,2.37,4.75,4.76,7.27,7.27c1.1-1.12,2.11-2.2,3.15-3.23c1.97-1.94,4.57-2.04,6.35-0.25c1.77,1.78,1.68,4.37-0.27,6.35
		c-1.01,1.02-2.07,2-3.18,3.07c0.34,0.39,0.57,0.69,0.85,0.97c2.22,2.23,4.47,4.43,6.68,6.67c2.02,2.04,2.02,4.5-0.02,6.55
		C127.97,33.16,123.54,37.57,119.14,41.98z M89,38.2c1.33-0.84,1.83-1.88,1.76-3.41c-0.13-3.23-0.08-6.47-0.02-9.71
		c0.02-0.94-0.28-1.42-1.11-1.87c-11.34-6.08-23.31-7.93-35.88-5.18c-27.45,6-45.13,32.87-39.83,60.35
		c6.55,33.92,43.84,52.06,74.61,36.29c25.83-13.23,35.7-45.46,21.73-70.84c-0.48-0.87-0.99-1.18-1.98-1.16
		c-3.24,0.07-6.48,0.11-9.71-0.01c-1.55-0.06-2.56,0.5-3.29,1.76c14.29,18.01,9.35,42.81-7.07,55.18
		c-15.62,11.77-37.67,10.1-51.34-4.07C23.18,81.35,22.32,59.15,34.79,44C47.58,28.45,71.3,24.41,89,38.2z M82.84,44.49
		c-11.08-8.68-29.13-8.61-40.48,3.88c-10.98,12.08-10.21,30.88,1.68,42.2c11.77,11.2,30.61,10.97,42.14-0.56
		c11.75-11.75,10.93-29.28,2.96-39.12c-3.1,3.06-6.23,6.14-9.37,9.23c2.15,4.38,2.66,7,2.12,10.96
		c-1.34,9.75-10.91,16.48-20.57,14.47c-9.77-2.03-15.86-12.19-13.04-21.73c3.09-10.46,14.57-15.41,24.34-10.52
		c0.36,0.18,1.05,0.32,1.25,0.12C76.89,50.48,79.85,47.48,82.84,44.49z M73.03,66.59c-0.35,0.32-0.68,0.6-0.99,0.91
		c-1.43,1.42-2.83,2.88-4.3,4.27c-1.41,1.34-3.34,1.58-4.98,0.72c-1.65-0.86-2.63-2.62-2.2-4.5c0.22-0.94,0.8-1.9,1.47-2.63
		c1.54-1.71,3.23-3.28,4.94-4.99c-3.84-1.07-7.76,0.6-9.64,3.94c-1.96,3.48-1.29,7.93,1.59,10.63c2.86,2.68,7.24,3.06,10.59,0.93
		C72.61,73.9,74.15,69.91,73.03,66.59z M99.35,27.59c4.4-4.39,8.72-8.72,12.93-12.92c-1.41-1.42-2.91-2.94-4.55-4.59
		c-2.61,2.65-5.29,5.36-7.94,8.1c-0.25,0.25-0.41,0.7-0.41,1.06C99.34,22.02,99.35,24.81,99.35,27.59z M105.71,34.08
		c2.15,0,4.18-0.16,6.17,0.04c2.17,0.21,3.69-0.53,5.12-2.13c2.02-2.26,4.28-4.3,6.28-6.28c-1.65-1.66-3.16-3.17-4.6-4.61
		C114.47,25.31,110.16,29.62,105.71,34.08z"/>
</g>
</svg>
