<?xml version="1.0" encoding="utf-8"?>
<!-- Generator: Adobe Illustrator 24.1.2, SVG Export Plug-In . SVG Version: 6.00 Build 0)  -->
<svg version="1.1" id="Capa_1" xmlns="http://www.w3.org/2000/svg" xmlns:xlink="http://www.w3.org/1999/xlink" x="0px" y="0px"
	 viewBox="0 0 133.15 133.14" style="enable-background:new 0 0 133.15 133.14;" xml:space="preserve">
<style type="text/css">
	.st0{fill:#009F93;}
	.st1{fill:#FFFFFF;}
	.st2{fill:#DC0B1A;}
	.st3{fill:#F49923;}
	.st4{clip-path:url(#SVGID_2_);}
	.st5{fill:#812A2E;}
	.st6{fill:#F4A07F;}
	.st7{fill:#1A1A1A;}
	.st8{opacity:0.5;}
	.st9{fill:#D45C48;}
	.st10{fill:#842A2E;}
	.st11{clip-path:url(#SVGID_4_);fill:#E7E6E6;}
	.st12{clip-path:url(#SVGID_4_);fill:#E00917;}
	.st13{clip-path:url(#SVGID_4_);fill:none;stroke:#E00917;stroke-width:3;stroke-miterlimit:10;}
	.st14{fill:#666666;}
	.st15{clip-path:url(#SVGID_6_);}
	.st16{fill:#E6E6E6;}
</style>
<g>
	<path class="st0" d="M40.31,0c16.04,0,32.07,0,48.11,0c1.22,0.66,2.42,1.35,2.86,2.8c0.7,2.28-0.23,3.93-2.05,5.17
		c2.07,3.24,4.18,6.36,6.09,9.59c3.55,6.01,6.73,12.2,8.28,19.09c0.58,2.57,0.75,5.15-0.17,7.68c-1.89,5.2-8.62,7.83-13.85,5.44
		c-0.69-0.32-1.36-0.69-2.2-1.12c0,2.12-0.03,4.1,0.04,6.07c0.01,0.28,0.46,0.68,0.78,0.79c3.89,1.34,7.37,3.43,10.6,5.94
		c7.56,5.91,13.94,12.98,19.81,20.5c2.79,3.58,5.31,7.37,7.98,11.1c1.72-0.96,3.44-1.06,4.97,0.23c0.66,0.56,1.07,1.41,1.59,2.13
		c0,0.69,0,1.39,0,2.08c-0.78,1.02-1.46,2.13-2.35,3.03c-8.22,8.27-16.47,16.5-24.71,24.74c-2.21,2.21-4.4,4.42-6.63,6.61
		c-1.22,1.19-2.68,1.55-4.31,0.98c-1.58-0.55-2.47-1.73-2.73-3.34c-0.1-0.66,0.04-1.35,0.08-2.1c-0.4-0.09-0.82-0.2-1.23-0.28
		c-6.21-1.18-12.39-2.51-18.33-4.71c-5.66-2.09-11.29-4.25-15.15-8.93c-5.89,4.37-11.75,8.72-17.67,13.11
		c0.11,0.23,0.27,0.53,0.39,0.85c0.91,2.5-0.64,5.17-3.28,5.57c-1.59,0.24-2.83-0.45-3.94-1.56c-7.74-7.77-15.5-15.51-23.25-23.27
		c-2.91-2.91-5.83-5.81-8.73-8.74c-1.19-1.21-1.61-2.66-1.04-4.3c0.54-1.57,1.68-2.51,3.3-2.78c0.66-0.11,1.36-0.02,2.12-0.02
		c0.09-0.4,0.21-0.9,0.3-1.4c1.26-6.69,2.77-13.3,5.22-19.67c1.54-4.01,3.25-7.94,6.02-11.29c1.96-2.36,4.38-3.94,7.52-4.12
		c4.07-0.24,8.67,2.87,10.14,6.82c0.27,0.72,0.49,1.46,0.82,2.45c1.6-1.65,3.1-3.14,4.52-4.7c0.2-0.22,0.18-0.8,0.05-1.13
		c-1.52-4.05-2.26-8.28-2.53-12.56c-0.63-10.2-0.11-20.35,1.68-30.42c0.48-2.67,0.93-5.35,1.4-8.05c-2.15-0.6-3.45-1.9-3.53-4.07
		c-0.07-2.05,1.11-3.37,2.94-4.15C40.29,0.1,40.29,0.04,40.31,0z M51.7,62.27c0.12-0.08,0.24-0.17,0.36-0.25
		c-0.32-1.92-0.75-3.82-0.93-5.75c-0.45-4.87-0.86-9.74-1.15-14.62c-0.13-2.22,1.54-4.01,3.59-4.23c2.18-0.24,4.12,1.06,4.58,3.15
		c0.15,0.67,0.11,1.38,0.12,2.07c0.14,7.52,1.18,14.92,3.06,22.2c0.11,0.43,0.47,1.02,0.82,1.11c1.07,0.27,2.19,0.33,3.38,0.48
		c-0.67-3.95-1.44-7.72-1.9-11.53c-0.54-4.46-0.9-8.96-1.16-13.45c-0.13-2.28,1.78-4.03,4.02-4.07c2.26-0.04,4.02,1.63,4.25,3.88
		c0.58,5.68,1.14,11.36,1.85,17.03c0.36,2.9,1.03,5.76,1.54,8.57c1.73,0,3.27,0,4.93,0c0-0.58,0-1.05,0-1.52c0-9.1,0-18.2,0-27.3
		c0-2.33,1.09-3.96,2.99-4.49c1.94-0.55,3.65,0.24,4.95,2.17c1.06,1.58,2.12,3.17,3.34,4.62c0.64,0.76,1.55,1.43,2.48,1.79
		c1.85,0.71,3.17-0.26,2.82-2.16c-0.44-2.37-1.01-4.75-1.88-6.99c-3.36-8.63-8.58-16.19-13.83-23.72c-0.5-0.72-1.03-0.98-1.91-0.98
		c-9.14,0.03-18.28,0.02-27.43,0.02c-0.42,0-0.83,0.04-1.27,0.07c-1.46,8.2-3.05,16.26-3.32,24.52c-0.19,5.81-0.37,11.6,0.56,17.37
		c0.55,3.44,1.38,6.8,3.3,9.77C50.38,60.85,51.08,61.53,51.7,62.27z M58.09,78.56c0.37,0.4,0.59,0.67,0.83,0.91
		c6.38,6.37,12.76,12.74,19.14,19.11c0.4,0.4,0.81,0.79,1.16,1.23c1.12,1.39,1.23,3.21,0.31,4.73c-0.89,1.47-2.5,2.23-4.21,1.92
		c-1.23-0.22-2.45-0.64-3.69-0.74c-1.71-0.15-3.48-0.33-5.13-0.02c-0.85,0.16-1.64,1.29-2.14,2.17c-0.15,0.27,0.71,1.21,1.23,1.73
		c0.48,0.48,1.06,0.92,1.69,1.2c3.39,1.51,6.75,3.13,10.23,4.4c6.7,2.43,13.74,3.49,20.71,4.82c0.88,0.17,1.43-0.02,2.04-0.64
		c6.44-6.49,12.92-12.94,19.38-19.41c0.3-0.3,0.58-0.62,0.83-0.89c-5.6-8.65-11.72-16.76-18.94-24.01
		c-3.37-3.38-6.87-6.61-10.94-9.16c-0.97-0.61-2.03-1.09-3.22-1.72c0,0.82,0.06,1.38-0.01,1.92c-0.18,1.3,0.37,2.09,1.38,2.92
		c2.55,2.08,5,4.29,7.41,6.52c2.03,1.88,2.15,4.44,0.41,6.21c-1.67,1.71-4.18,1.63-6.14-0.17c-1.85-1.7-3.77-3.32-5.57-5.08
		c-1.21-1.19-2.49-1.64-4.18-1.4c-1.32,0.19-2.68,0.04-4.03,0.04c-0.01,0.14-0.02,0.28-0.03,0.42c0.38,0.28,0.77,0.55,1.12,0.85
		c3.45,2.89,6.95,5.73,10.31,8.72c1.76,1.56,1.66,3.96,0.04,5.68c-1.64,1.73-4.04,1.95-5.68,0.35c-5.87-5.71-12.56-10.35-19.3-14.92
		c-0.52-0.36-1.07-0.68-1.29-0.83C60.49,76.53,59.3,77.53,58.09,78.56z M44.89,67.46c-0.15,0.19-0.35,0.49-0.59,0.74
		c-3.48,3.5-6.96,7.01-10.47,10.49c-1.57,1.56-3.33,1.84-5.08,0.89c-1.72-0.93-2.45-2.62-2.02-4.74c0.15-0.72,0.4-1.43,0.46-2.16
		c0.17-2.01,0.38-4.03,0.33-6.05c-0.03-1.23-1.06-2.11-2.18-2.27c-0.56-0.08-1.51,0.65-1.85,1.25c-1.59,2.86-3.24,5.72-4.47,8.74
		c-3.17,7.74-4.48,15.97-5.94,24.15c-0.09,0.5,0.27,1.25,0.66,1.64c6.5,6.56,13.03,13.07,19.56,19.6c0.24,0.24,0.5,0.46,0.74,0.68
		c10.85-7.01,20.87-14.89,29.22-24.52c-0.99-1.04-1.84-1.94-2.75-2.9c-1.03,1.09-2.04,2.15-3.06,3.21
		c-1.89,1.97-4.46,2.15-6.22,0.45c-1.79-1.74-1.7-4.23,0.22-6.23c1.08-1.12,2.14-2.25,3.05-3.21c-1-1.07-1.91-2.05-2.86-3.07
		c-1.15,1.22-2.28,2.46-3.47,3.65c-1.74,1.75-4.25,1.83-5.93,0.23c-1.7-1.62-1.62-4.17,0.01-6.06c2.77-3.21,5.45-6.5,8.16-9.76
		c0.2-0.25,0.35-0.54,0.44-0.69C48.89,70.19,47,68.9,44.89,67.46z"/>
</g>
</svg>
