<?xml version="1.0" encoding="utf-8"?>
<!-- Generator: Adobe Illustrator 24.1.2, SVG Export Plug-In . SVG Version: 6.00 Build 0)  -->
<svg version="1.1" id="Capa_1" xmlns="http://www.w3.org/2000/svg" xmlns:xlink="http://www.w3.org/1999/xlink" x="0px" y="0px"
	 viewBox="0 0 133.4 124.92" style="enable-background:new 0 0 133.4 124.92;" xml:space="preserve">
<style type="text/css">
	.st0{fill:#009F93;}
	.st1{fill:#FFFFFF;}
	.st2{fill:#DC0B1A;}
	.st3{fill:#F49923;}
	.st4{clip-path:url(#SVGID_2_);}
	.st5{fill:#812A2E;}
	.st6{fill:#F4A07F;}
	.st7{fill:#1A1A1A;}
	.st8{opacity:0.5;}
	.st9{fill:#D45C48;}
	.st10{fill:#842A2E;}
	.st11{clip-path:url(#SVGID_4_);fill:#E7E6E6;}
	.st12{clip-path:url(#SVGID_4_);fill:#E00917;}
	.st13{clip-path:url(#SVGID_4_);fill:none;stroke:#E00917;stroke-width:3;stroke-miterlimit:10;}
	.st14{fill:#666666;}
	.st15{clip-path:url(#SVGID_6_);}
	.st16{fill:#E6E6E6;}
</style>
<g>
	<path class="st0" d="M0,100.96c0-28.43,0-56.86,0-85.3c1.07-2.41,2.94-3.29,5.53-3.13c2.28,0.14,4.57,0.03,6.97,0.03
		c0-2.78-0.06-5.42,0.03-8.05c0.03-0.91,0.29-1.9,0.75-2.68c0.91-1.55,2.86-2.16,4.56-1.66c1.74,0.52,2.96,2.08,2.99,3.98
		c0.04,2.76,0.01,5.52,0.01,8.32c5.62,0,11.11,0,16.69,0c0-2.67-0.06-5.27,0.03-7.86c0.03-0.92,0.26-1.91,0.69-2.71
		c0.86-1.56,2.81-2.23,4.52-1.78c1.74,0.46,3.05,2.05,3.08,3.9c0.04,2.8,0.01,5.61,0.01,8.44c5.64,0,11.12,0,16.69,0
		c0-0.56,0-1.03,0-1.5c0-2.3-0.04-4.59,0.03-6.89c0.05-1.92,1.3-3.45,3.05-3.93c1.73-0.48,3.63,0.15,4.53,1.73
		c0.45,0.78,0.67,1.78,0.7,2.7c0.09,2.62,0.03,5.25,0.03,7.88c5.65,0,11.13,0,16.69,0c0-2.83-0.05-5.56,0.02-8.28
		c0.06-2.46,1.88-4.17,4.26-4.15c2.29,0.02,4,1.78,4.06,4.18c0.02,0.95,0.01,1.91,0.01,2.86c0,1.8,0,3.61,0,5.49
		c2.57,0,4.96,0,7.34,0c3.66,0,5.16,1.48,5.16,5.09c0,16.03,0.01,32.07-0.02,48.1c0,0.93,0.21,1.27,1.22,1.5
		c11.86,2.64,19.51,9.81,22.89,21.47c0.42,1.44,0.6,2.95,0.9,4.43c0,1.82,0,3.64,0,5.46c-0.19,1.01-0.38,2.02-0.59,3.03
		c-2.62,12.66-13.64,22.38-26.27,23.21c-13.45,0.88-25.49-6.96-29.91-19.48c-0.15-0.43-0.31-0.87-0.46-1.27c-0.89,0-1.67,0-2.45,0
		c-22.8,0-45.59-0.03-68.39,0.04C2.76,104.16,0.98,103.36,0,100.96z M8.42,20.93c0,25,0,49.89,0,74.79c22.21,0,44.33,0,66.54,0
		c0.02-0.32,0.05-0.57,0.06-0.82c0.55-13.73,10.22-25.03,23.75-27.64c1.16-0.22,1.32-0.66,1.32-1.67
		c-0.03-14.43-0.02-28.86-0.02-43.29c0-0.45-0.04-0.91-0.06-1.31c-1.45,0-2.73,0-4.1,0c0,0.53,0,0.95,0,1.38
		c0,0.91,0.02,1.82-0.01,2.73c-0.07,2.3-1.81,4.05-4.03,4.1c-2.29,0.05-4.16-1.66-4.28-4c-0.07-1.41-0.01-2.82-0.01-4.23
		c-5.66,0-11.11,0-16.69,0c0,1.23,0.01,2.39,0,3.55c-0.02,2.73-1.77,4.66-4.21,4.62c-2.38-0.04-4.1-1.95-4.12-4.59
		c-0.01-1.19,0-2.39,0-3.58c-5.65,0-11.1,0-16.68,0c0,1.31,0.01,2.56,0,3.81c-0.02,2.67-1.71,4.5-4.15,4.51
		c-2.43,0.01-4.16-1.84-4.18-4.49c-0.01-1.28,0-2.56,0-3.83c-5.66,0-11.11,0-16.68,0c0,1.27,0.01,2.48,0,3.68
		c-0.03,2.61-1.84,4.53-4.22,4.49c-2.35-0.04-4.09-1.91-4.11-4.46c-0.01-1.24,0-2.47,0-3.75C11.06,20.93,9.8,20.93,8.42,20.93z
		 M104.13,116.62c11.58,0.04,20.89-9.19,20.92-20.73c0.03-11.55-9.24-20.87-20.78-20.89c-11.52-0.03-20.86,9.19-20.91,20.62
		C83.3,107.29,92.5,116.58,104.13,116.62z"/>
	<path class="st0" d="M12.45,45.89c0-2.73-0.02-5.46,0.01-8.18c0.03-2.61,1.71-4.33,4.32-4.34c5.42-0.03,10.85-0.03,16.27,0
		c2.67,0.01,4.41,1.74,4.42,4.41c0.03,5.41,0.04,10.83,0,16.24c-0.02,2.6-1.75,4.31-4.35,4.32c-5.47,0.03-10.93,0.03-16.4,0
		c-2.56-0.02-4.2-1.7-4.26-4.25c0-0.09,0-0.17,0-0.26C12.45,51.18,12.45,48.53,12.45,45.89z M29.03,49.97c0-2.83,0-5.53,0-8.19
		c-2.79,0-5.46,0-8.11,0c0,2.79,0,5.48,0,8.19C23.67,49.97,26.31,49.97,29.03,49.97z"/>
	<path class="st0" d="M95.91,45.86c0,2.68,0.02,5.37,0,8.05c-0.02,2.71-1.66,4.4-4.36,4.42c-5.42,0.03-10.85,0.03-16.27,0
		c-2.66-0.01-4.37-1.75-4.39-4.42c-0.02-5.37-0.02-10.74,0-16.11c0.01-2.66,1.75-4.42,4.39-4.44c5.42-0.03,10.85-0.03,16.27,0
		c2.67,0.01,4.33,1.74,4.36,4.44C95.93,40.49,95.91,43.18,95.91,45.86z M79.3,49.94c2.8,0,5.47,0,8.18,0c0-2.77,0-5.46,0-8.18
		c-2.77,0-5.44,0-8.18,0C79.3,44.5,79.3,47.17,79.3,49.94z"/>
	<path class="st0" d="M54.3,66.63c2.69,0,5.38-0.02,8.07,0c2.57,0.02,4.32,1.76,4.33,4.34c0.02,5.42,0.02,10.83,0,16.25
		c-0.01,2.66-1.74,4.36-4.44,4.37c-5.38,0.02-10.76,0.02-16.15,0c-2.64-0.01-4.4-1.76-4.41-4.41c-0.02-5.37-0.02-10.74,0-16.12
		c0.01-2.72,1.77-4.42,4.52-4.43C48.92,66.63,51.61,66.63,54.3,66.63z M50.14,75.02c0,2.8,0,5.49,0,8.16c2.79,0,5.49,0,8.17,0
		c0-2.77,0-5.43,0-8.16C55.57,75.02,52.9,75.02,50.14,75.02z"/>
	<path class="st0" d="M12.45,79.13c0-2.68-0.02-5.37,0.01-8.05c0.02-2.79,1.69-4.43,4.47-4.44c5.34-0.01,10.67-0.01,16.01,0
		c2.8,0,4.53,1.71,4.54,4.54c0.02,5.28,0.02,10.56,0,15.84c-0.01,2.91-1.72,4.57-4.64,4.58c-5.25,0.01-10.5,0.01-15.75,0
		c-3,0-4.62-1.64-4.64-4.68C12.44,84.32,12.45,81.72,12.45,79.13z M29.04,83.22c0-2.81,0-5.5,0-8.2c-2.77,0-5.44,0-8.17,0
		c0,2.76,0,5.45,0,8.2C23.62,83.22,26.28,83.22,29.04,83.22z"/>
	<path class="st0" d="M66.71,45.95c0,2.64,0.01,5.29,0,7.93c-0.02,2.77-1.68,4.44-4.47,4.45c-5.34,0.02-10.68,0.02-16.02,0
		c-2.82-0.01-4.5-1.73-4.5-4.58c-0.01-5.29-0.01-10.57,0-15.86c0.01-2.81,1.73-4.53,4.56-4.54c5.3-0.02,10.59-0.02,15.89,0
		c2.85,0.01,4.53,1.7,4.55,4.53C66.72,40.58,66.71,43.27,66.71,45.95z M50.1,49.93c2.81,0,5.48,0,8.17,0c0-2.77,0-5.47,0-8.16
		c-2.77,0-5.44,0-8.17,0C50.1,44.51,50.1,47.18,50.1,49.93z"/>
	<path class="st0" d="M100.04,99.97c-1.49,0-2.82,0.02-4.16,0c-2.47-0.04-4.28-1.77-4.31-4.1c-0.03-2.31,1.79-4.14,4.23-4.21
		c1.34-0.04,2.69-0.01,4.24-0.01c0-1.34-0.01-2.62,0-3.9c0.02-2.63,1.78-4.49,4.2-4.47c2.36,0.02,4.1,1.88,4.13,4.43
		c0.02,1.25,0,2.5,0,3.94c1.45,0,2.83-0.06,4.19,0.01c2.35,0.13,4.13,2.01,4.08,4.23c-0.05,2.27-1.84,4-4.22,4.06
		c-0.91,0.02-1.82,0.01-2.73,0.01c-0.38,0-0.76,0-1.32,0c0,1.35,0.01,2.59,0,3.82c-0.02,2.71-1.79,4.64-4.23,4.61
		c-2.4-0.03-4.1-1.91-4.11-4.57C100.03,102.62,100.04,101.4,100.04,99.97z"/>
</g>
</svg>
