<?xml version="1.0" encoding="utf-8"?>
<!-- Generator: Adobe Illustrator 24.1.2, SVG Export Plug-In . SVG Version: 6.00 Build 0)  -->
<svg version="1.1" id="Capa_1" xmlns="http://www.w3.org/2000/svg" xmlns:xlink="http://www.w3.org/1999/xlink" x="0px" y="0px"
	 viewBox="0 0 137.86 129" style="enable-background:new 0 0 137.86 129;" xml:space="preserve">
<style type="text/css">
	.st0{fill:#009F93;}
	.st1{fill:#FFFFFF;}
	.st2{fill:#DC0B1A;}
	.st3{fill:#F49923;}
	.st4{clip-path:url(#SVGID_2_);}
	.st5{fill:#812A2E;}
	.st6{fill:#F4A07F;}
	.st7{fill:#1A1A1A;}
	.st8{opacity:0.5;}
	.st9{fill:#D45C48;}
	.st10{fill:#842A2E;}
	.st11{clip-path:url(#SVGID_4_);fill:#E7E6E6;}
	.st12{clip-path:url(#SVGID_4_);fill:#E00917;}
	.st13{clip-path:url(#SVGID_4_);fill:none;stroke:#E00917;stroke-width:3;stroke-miterlimit:10;}
	.st14{fill:#666666;}
	.st15{clip-path:url(#SVGID_6_);}
	.st16{fill:#E6E6E6;}
</style>
<g>
	<path class="st1" d="M137.86,54.27c0,6.91,0,13.82,0,20.73c-1.01,3.63-3.12,6.47-6.1,8.74c-0.25,0.19-0.32,0.77-0.29,1.16
		c0.13,1.46,0.46,2.92,0.48,4.38c0.06,5.16-0.04,10.32,0.05,15.47c0.06,3.59-1.24,6.56-3.71,9.06c-3.81,3.85-8.56,6.16-13.54,8.01
		c-11.19,4.15-22.87,5.89-34.71,6.74c-11.12,0.8-22.22,0.55-33.3-0.78c-9.32-1.12-18.5-2.88-27.3-6.25
		c-4.2-1.61-8.2-3.64-11.62-6.62c-3.24-2.83-5.03-6.28-4.86-10.73c0.19-4.83,0.4-9.7,0.1-14.51c-0.27-4.29,1.16-7.68,4.21-10.4
		c1.55-1.38,2-2.55,1.82-4.77c-0.44-5.39-0.16-10.84-0.16-16.26c0-1.43,0.49-3.04-0.01-4.24c-0.48-1.14-1.98-1.85-3.03-2.75
		c-0.1-0.09-0.21-0.16-0.32-0.25C1.95,48-0.19,44.36,0.01,39.47c0.17-4.03,0.02-8.07,0.04-12.11c0.01-1.83-0.1-3.68,0.16-5.48
		c0.57-3.88,3-6.61,6.02-8.89c4.5-3.4,9.63-5.5,14.95-7.16C30.46,2.94,40,1.42,49.68,0.64c17.68-1.43,35.21-0.58,52.5,3.6
		c7.39,1.78,14.57,4.17,20.75,8.81c3.14,2.35,5.84,5.21,5.99,9.3c0.24,6.63,0.06,13.27,0,19.91c-0.01,0.77,0.13,1.22,0.78,1.63
		C133.63,46.39,136.75,49.54,137.86,54.27z M67.72,41.08c3.25-0.22,9.62-0.5,15.95-1.12c9.03-0.88,17.9-2.63,26.42-5.86
		c3.74-1.42,7.34-3.12,10.38-5.82c2.9-2.57,3.46-5.13,1.65-7.78c-0.52-0.77-1.2-1.46-1.9-2.07c-2.93-2.6-6.43-4.23-10.04-5.59
		c-11.66-4.39-23.85-6.04-36.2-6.71C61.76,5.45,49.6,5.99,37.51,7.99C30.02,9.22,22.67,11,15.74,14.18
		c-3.07,1.41-6.01,3.03-8.25,5.66c-2.07,2.44-2.11,4.84,0.05,7.23c0.98,1.09,2.11,2.09,3.32,2.91c5.04,3.42,10.75,5.27,16.58,6.79
		C39.62,39.94,52.07,40.95,67.72,41.08z M126.21,48.39c-4.07,4.42-9.02,6.89-14.26,8.85c-12.31,4.6-25.17,6.25-38.18,6.98
		c-8.51,0.48-17.03,0.31-25.53-0.5c-9.07-0.86-18.03-2.29-26.76-5c-2.19-0.68-4.34-1.5-6.52-2.25c-0.09,0.09-0.18,0.18-0.27,0.26
		c0.64,0.99,1.16,2.09,1.95,2.94c3.06,3.33,7.09,5.13,11.2,6.69c10.53,3.98,21.54,5.67,32.7,6.46c13.19,0.93,26.34,0.54,39.41-1.6
		c7.58-1.24,15.02-2.99,22.04-6.19c3.15-1.43,6.19-3.08,8.46-5.8c2.06-2.47,2.02-5.03-0.25-7.32
		C129.01,50.68,127.62,49.61,126.21,48.39z M12.62,81.75c-0.83,0.98-1.68,1.91-2.44,2.89c-1.68,2.17-1.74,4.26-0.15,6.41
		c0.53,0.71,1.16,1.38,1.83,1.96c3.02,2.62,6.6,4.28,10.3,5.67c10.64,3.98,21.74,5.66,32.99,6.42c12.97,0.87,25.9,0.5,38.75-1.6
		c7.62-1.24,15.11-2.99,22.19-6.19c3.2-1.45,6.28-3.11,8.56-5.89c0.93-1.14,1.71-2.39,1.31-4.12c-1.09,0.48-2.1,0.96-3.13,1.37
		c-11.56,4.63-23.7,6.56-36.02,7.53c-8.68,0.69-17.38,0.68-26.07,0.03c-8.1-0.6-16.15-1.57-24.04-3.51
		C28.17,90.65,19.85,88.05,12.62,81.75z M88.03,45.4c-3.99,0.4-7.83,0.78-11.66,1.17c0,3.95,0,7.77,0,11.74
		c3.71-0.38,7.3-0.74,10.9-1.16c0.28-0.03,0.73-0.45,0.74-0.69C88.04,52.8,88.03,49.14,88.03,45.4z M44.1,121.63
		c3.85,0.39,7.69,0.77,11.6,1.17c0-4.06,0-7.86,0-11.72c-3.87-0.38-7.69-0.76-11.6-1.15C44.1,113.84,44.1,117.63,44.1,121.63z
		 M79.25,122.8c3.97-0.4,7.79-0.79,11.63-1.18c0-3.98,0-7.77,0-11.7c-3.93,0.39-7.78,0.78-11.63,1.16
		C79.25,114.99,79.25,118.75,79.25,122.8z M49.95,89.38c3.91,0.39,7.72,0.78,11.62,1.17c0-4.04,0-7.87,0-11.73
		c-3.9-0.39-7.71-0.77-11.62-1.15C49.95,81.56,49.95,85.35,49.95,89.38z M35.25,56.17c0-3.87,0.02-7.5-0.04-11.11
		c0-0.27-0.59-0.68-0.96-0.77c-3.13-0.75-6.27-1.45-9.41-2.16c-0.41-0.09-0.82-0.17-1.34-0.28c0,2.82,0,5.46,0,8.1
		c0,3.3-0.01,3.34,3.16,4.16C29.44,54.84,32.27,55.46,35.25,56.17z M102.77,76.75c0,3.82,0,7.63,0,11.71
		c3.81-0.95,7.44-1.85,11.06-2.8c0.24-0.06,0.56-0.48,0.56-0.74c0.04-3.56,0.02-7.13,0.02-10.79
		C110.43,75.02,106.61,75.88,102.77,76.75z M26.47,106.38c0,3.86,0,7.57,0,11.49c3.83,0.92,7.67,1.85,11.64,2.81
		c0-4.07,0-7.86,0-11.66C34.24,108.14,30.41,107.27,26.47,106.38z M79.11,90.79c0-3.98,0-7.81,0-11.65c-3.89,0-7.68,0-11.49,0
		c0,3.91,0,7.73,0,11.65C71.48,90.79,75.23,90.79,79.11,90.79z M61.76,111.37c0,3.95,0,7.77,0,11.64c3.89,0,7.67,0,11.46,0
		c0-3.96,0-7.79,0-11.64C69.36,111.37,65.6,111.37,61.76,111.37z M70.31,58.54c0-3.97,0-7.79,0-11.68c-3.88,0-7.66,0-11.49,0
		c0,3.91,0,7.77,0,11.68C62.67,58.54,66.42,58.54,70.31,58.54z M41.1,45.41c0,3.73-0.02,7.31,0.03,10.88c0,0.3,0.44,0.82,0.73,0.85
		c3.59,0.43,7.19,0.78,10.86,1.16c0-4.01,0-7.87,0-11.74C48.86,46.18,45.08,45.8,41.1,45.41z M85.15,90.56
		c3.63-0.38,7.11-0.75,10.59-1.08c0.86-0.08,1.11-0.47,1.09-1.3c-0.04-2.87-0.02-5.74-0.02-8.61c0-0.61,0-1.21,0-1.91
		c-4.03,0.4-7.84,0.79-11.66,1.17C85.15,82.74,85.15,86.54,85.15,90.56z M43.91,88.31c0-4,0-7.82,0-11.57
		c-3.89-0.88-7.67-1.73-11.58-2.61c0,3.68-0.02,7.25,0.04,10.83c0,0.27,0.5,0.68,0.84,0.78c1.58,0.49,3.17,0.95,4.78,1.33
		C39.92,87.53,41.88,87.89,43.91,88.31z M108.48,106.41c-3.72,0.82-7.38,1.61-11.02,2.46c-0.27,0.06-0.59,0.61-0.61,0.94
		c-0.07,1.39-0.03,2.78-0.03,4.17c0,2.14,0,4.28,0,6.71c4.06-0.98,7.89-1.91,11.66-2.83C108.48,113.89,108.48,110.18,108.48,106.41z
		 M93.9,56.22c3.85-0.97,7.45-1.85,11.03-2.81c0.29-0.08,0.61-0.7,0.63-1.08c0.06-1.83,0.03-3.67,0.03-5.51c0-1.63,0-3.27,0-4.92
		c-3.81,0.83-7.43,1.61-11.05,2.44c-0.26,0.06-0.61,0.53-0.61,0.81C93.89,48.73,93.9,52.3,93.9,56.22z M122.98,34.33
		c-3.51,1.71-7.2,3.48-10.86,5.31c-0.32,0.16-0.61,0.72-0.62,1.1c-0.06,2.1-0.03,4.21-0.03,6.31c0,1.31,0,2.62,0,4.09
		c3.29-1.4,6.3-2.81,8.74-5.09c1.11-1.04,2.44-2.38,2.65-3.74C123.27,39.58,122.98,36.75,122.98,34.33z M26.43,83.41
		c0-3.49-0.03-6.79,0.02-10.08c0.01-0.89-0.25-1.29-1.09-1.66c-2.65-1.18-5.25-2.48-7.83-3.8c-0.92-0.47-1.74-1.14-2.75-1.81
		c0,2.67-0.12,5.13,0.06,7.56c0.07,1,0.57,2.1,1.2,2.9C18.66,79.93,22.46,81.64,26.43,83.41z M20.55,115.63
		c0-3.69,0.02-7.18-0.04-10.66c-0.01-0.33-0.5-0.76-0.87-0.94c-2.63-1.32-5.31-2.56-7.93-3.9c-0.93-0.47-1.76-1.14-2.84-1.85
		c0,2.29,0.06,4.34-0.02,6.38c-0.08,2.08,0.73,3.73,2.15,5.15C13.65,112.46,16.91,114.09,20.55,115.63z M114.42,115.63
		c3.79-1.6,7.33-3.31,10-6.33c0.69-0.78,1.43-1.81,1.5-2.78c0.21-2.65,0.07-5.33,0.07-7.71c-3.63,1.75-7.35,3.54-11.05,5.37
		c-0.24,0.12-0.49,0.53-0.49,0.81C114.41,108.47,114.42,111.96,114.42,115.63z M120.29,83.39c3.8-1.63,7.35-3.32,10-6.37
		c0.71-0.81,1.44-1.9,1.52-2.91c0.21-2.61,0.07-5.24,0.07-7.57c-3.65,1.77-7.37,3.56-11.07,5.4c-0.25,0.12-0.5,0.53-0.5,0.81
		C120.28,76.22,120.29,79.71,120.29,83.39z M5.98,34.26c0,2.25-0.06,4.75,0.04,7.25c0.03,0.76,0.37,1.6,0.82,2.23
		c2.63,3.75,6.61,5.54,10.79,7.4c0-3.68,0.02-7.13-0.03-10.57c0-0.33-0.35-0.8-0.67-0.96C13.3,37.8,9.65,36.04,5.98,34.26z"/>
</g>
</svg>
