<?xml version="1.0" encoding="utf-8"?>
<!-- Generator: Adobe Illustrator 24.1.2, SVG Export Plug-In . SVG Version: 6.00 Build 0)  -->
<svg version="1.1" id="Capa_1" xmlns="http://www.w3.org/2000/svg" xmlns:xlink="http://www.w3.org/1999/xlink" x="0px" y="0px"
	 viewBox="0 0 260 260" style="enable-background:new 0 0 260 260;" xml:space="preserve">
<style type="text/css">
	.st0{fill:#009F93;}
	.st1{fill:#FFFFFF;}
	.st2{fill:#DC0B1A;}
	.st3{fill:#F49923;}
	.st4{clip-path:url(#SVGID_2_);}
	.st5{fill:#812A2E;}
	.st6{fill:#F4A07F;}
	.st7{fill:#1A1A1A;}
	.st8{opacity:0.5;}
	.st9{fill:#D45C48;}
	.st10{fill:#842A2E;}
	.st11{clip-path:url(#SVGID_4_);fill:#E7E6E6;}
	.st12{clip-path:url(#SVGID_4_);fill:#E00917;}
	.st13{clip-path:url(#SVGID_4_);fill:none;stroke:#E00917;stroke-width:3;stroke-miterlimit:10;}
	.st14{fill:#666666;}
	.st15{clip-path:url(#SVGID_6_);}
	.st16{fill:#E6E6E6;}
</style>
<g>
	<circle class="st3" cx="130" cy="130" r="130"/>
	<g>
		<defs>
			<circle id="SVGID_1_" cx="130" cy="130" r="115"/>
		</defs>
		<use xlink:href="#SVGID_1_"  style="overflow:visible;fill:#FFFFFF;"/>
		<clipPath id="SVGID_2_">
			<use xlink:href="#SVGID_1_"  style="overflow:visible;"/>
		</clipPath>
		<g class="st4">
			<g>
				<g>
					<path class="st5" d="M173.9,130.26c0,0,12.24-42.84,6.12-50.18c-5.02-6.02-17.13-7.34-17.13-7.34s-26.68-26.94-51.4-25.7
						c-24.48,1.22-18.36,22.03-18.36,22.03s-11.01,4.9-13.46,12.24c-2.45,7.34,8.57,47.73,8.57,47.73L173.9,130.26z"/>
				</g>
				<g>
					<path class="st6" d="M71.62,219.41c0,0,50.81,83.41,77.73,77.3c26.93-6.13,46.33-70.14,46.33-70.14s-31.64-16.76-37.74-28.94
						c-0.65-1.3-1.09-2.55-1.24-3.73c-0.22-1.77-1.08-6.2-1.22-8.57c-0.18-2.91,0.09-5.44,0-8.56c-0.05-1.77,0.16-1.93,0.12-3.57
						c-0.12-6.2-0.12-11.11-0.12-11.11l-46.51-1.23c0,0,0.14,4.35,0.08,10.28c-0.01,1.33-0.03,2.75-0.06,4.2
						c-0.05,2.23-0.13,4.56-0.26,6.9v0.09c-0.19,3.55-0.49,7.12-0.95,10.3c-0.03,0.26-0.06,0.52-0.12,0.78
						c-0.25,1.68-0.54,3.25-0.89,4.65c-0.69,2.71-1.57,4.74-2.69,5.63c-0.7,0.57-1.68,1.2-2.85,1.9
						C92.23,210.94,71.62,219.41,71.62,219.41z"/>
				</g>
				<g>
					<path class="st7" d="M107.36,195.22c4.78,2.67,20.32,10.44,39.75-11.58c0.57-1,1.11-3.39,1.49-4.42l-39.56-8.08
						C108.97,178.7,108.68,187.79,107.36,195.22z"/>
				</g>
				<g>
					<path class="st6" d="M169,110.68c0,0,1.42,50.94-8.95,63.89c-8.27,10.34-26.87,18.96-47.35,10.76
						c-18.36-7.34-20.81-45.28-20.81-53.85c0-5.73-0.05-13.92,0.27-19.64c0.09-1.54-0.14-4.31,0.74-5.68
						c0.74-1.15,2.88-2.1,3.94-3.03c1.24-1.08,2.41-2.24,3.49-3.48c2.24-2.57,4.34-5.62,7.61-6.6c1.96-0.59,4.06-0.33,6.1-0.18
						c4.22,0.29,8.75-0.05,12.12-2.6c1.53-1.16,2.93-2.8,4.85-2.92c2.36-0.15,9.3,8.01,11.51,10.12c2.15,2.05,4.54,3.9,7.01,5.55
						C155.4,106.94,162.03,109.64,169,110.68z"/>
				</g>
				<g>
					<path class="st6" d="M167.99,126.59c0,0,6.76-2.45,9.59,4.9c2.82,7.34-3.67,23.25-11.01,23.25
						C159.4,154.74,167.99,126.59,167.99,126.59z"/>
				</g>
				<g>
					<path class="st7" d="M145.62,130.72c0.67-0.62,1.45-0.97,2.33-0.91c0.1-0.01,0.2-0.01,0.3-0.01c0.04,0,0.07-0.02,0.11-0.01
						c0.04,0,0.06,0.01,0.1,0.02c3.02,0.16,3.86,3.8,2.42,5.89c-0.18,0.5-0.47,0.95-0.96,1.25c-0.49,0.3-1.08,0.43-1.67,0.43
						c-0.05,0.02-0.1,0.05-0.16,0.06c-1.41,0.29-2.39-0.4-2.93-1.45C143.86,134.55,144.05,132.16,145.62,130.72z"/>
				</g>
				<g>
					<path class="st7" d="M106.03,131.69c1.21-1.67,3.58-1.99,5.16-0.65c0.14,0.12,0.26,0.25,0.38,0.4c0.4,0.45,0.63,1.04,0.62,1.68
						c0,0.07,0,0.15-0.01,0.22c0,0.02,0,0.04,0,0.07c-0.15,1.12-0.33,2.25-0.98,3.21c-1.26,1.84-3.85,1.58-5.17-0.03
						C104.88,135.18,105,133.11,106.03,131.69z"/>
				</g>
				<g class="st8">
					<path class="st9" d="M123.03,151.92c0.14-1.02,1.12-1.79,2.15-1.64c1.01,0.14,2.02,0.29,3.03,0.43
						c1.02,0.15,1.78,1.12,1.64,2.15c-0.14,1.02-1.12,1.79-2.15,1.64c-1.01-0.14-2.02-0.29-3.03-0.43
						C123.65,153.92,122.89,152.95,123.03,151.92z"/>
				</g>
				<g>
					<g>
						<path class="st10" d="M113.97,119.19c0.61-0.49,0.96-1.27,0.83-2.01c-0.18-1.03-1.21-1.6-2.31-1.28
							c-0.26,0.08-6.41,1.88-11.6,6.32c-0.89,0.76-1.07,1.99-0.41,2.76c0.66,0.77,1.93,0.81,2.81,0.02
							c4.42-3.75,9.79-5.35,9.84-5.37C113.45,119.53,113.73,119.38,113.97,119.19z"/>
					</g>
				</g>
				<g>
					<g>
						<path class="st10" d="M144.99,119.19c-0.61-0.49-0.96-1.27-0.83-2.01c0.18-1.03,1.21-1.6,2.31-1.28
							c0.26,0.08,6.41,1.88,11.6,6.32c0.89,0.76,1.07,1.99,0.41,2.76c-0.66,0.77-1.93,0.81-2.81,0.02
							c-4.42-3.75-9.79-5.35-9.84-5.37C145.5,119.53,145.23,119.38,144.99,119.19z"/>
					</g>
				</g>
				<g>
					<path class="st5" d="M164.11,79.47c-0.1,0-0.19-0.01-0.29-0.02c-1-0.16-1.68-1.09-1.53-2.09c0.07-0.47,1.32-10.83-13.38-22.14
						c-0.8-0.62-0.95-1.77-0.34-2.57c0.62-0.8,1.77-0.95,2.57-0.34c16.58,12.76,14.85,25.09,14.77,25.61
						C165.78,78.83,165,79.47,164.11,79.47z"/>
				</g>
				<g>
					<path class="st1" d="M117.21,161.01c0.1-0.02,19.26-0.06,21.93-0.21c1.46-0.08,1.39,1.33,1.1,2.39
						c-2.96,10.59-14.69,9.91-19.25,5.93C117.77,166.31,115.47,161.4,117.21,161.01z"/>
				</g>
				<g class="st8">
					<path class="st9" d="M169,135.16c1.22,0,2.45,3.67,2.45,4.9c0,1.22-3.67,4.9-3.67,4.9S167.78,135.16,169,135.16z"/>
				</g>
				<g>
					<path class="st6" d="M92.9,126.59c0,0-6.76-2.45-9.59,4.9c-2.82,7.34,3.67,23.25,11.01,23.25
						C101.49,154.74,92.9,126.59,92.9,126.59z"/>
				</g>
				<g class="st8">
					<path class="st9" d="M91.88,135.16c-1.22,0-2.45,3.67-2.45,4.9c0,1.22,3.67,4.9,3.67,4.9S93.11,135.16,91.88,135.16z"/>
				</g>
			</g>
			<g>
				<path class="st1" d="M62.58,232.48C62.58,232.48,62.58,232.48,62.58,232.48c8.56,34.84,31.44,80.25,71.61,84.17
					c42.95,4.19,59.16-48.05,64.92-81.38c0.29-1.66-0.15-3.07-0.98-4.15c1.66-3.01-2.24-6.74-5.57-5.05
					c-18.89,9.55-41.05,13.19-62.09,13.7c-21.51,0.52-42.13-3.95-60.98-14.4C64.53,222.62,60.14,228.6,62.58,232.48z"/>
			</g>
		</g>
	</g>
</g>
</svg>
