<?xml version="1.0" encoding="utf-8"?>
<!-- Generator: Adobe Illustrator 24.1.2, SVG Export Plug-In . SVG Version: 6.00 Build 0)  -->
<svg version="1.1" id="Capa_1" xmlns="http://www.w3.org/2000/svg" xmlns:xlink="http://www.w3.org/1999/xlink" x="0px" y="0px"
	 viewBox="0 0 135.71 129.5" style="enable-background:new 0 0 135.71 129.5;" xml:space="preserve">
<style type="text/css">
	.st0{fill:#009F93;}
	.st1{fill:#FFFFFF;}
	.st2{fill:#DC0B1A;}
	.st3{fill:#F49923;}
	.st4{clip-path:url(#SVGID_2_);}
	.st5{fill:#812A2E;}
	.st6{fill:#F4A07F;}
	.st7{fill:#1A1A1A;}
	.st8{opacity:0.5;}
	.st9{fill:#D45C48;}
	.st10{fill:#842A2E;}
	.st11{clip-path:url(#SVGID_4_);fill:#E7E6E6;}
	.st12{clip-path:url(#SVGID_4_);fill:#E00917;}
	.st13{clip-path:url(#SVGID_4_);fill:none;stroke:#E00917;stroke-width:3;stroke-miterlimit:10;}
	.st14{fill:#666666;}
	.st15{clip-path:url(#SVGID_6_);}
	.st16{fill:#E6E6E6;}
</style>
<path class="st2" d="M71.77,2.44l17.58,35.63c0.64,1.29,1.87,2.18,3.29,2.39l39.31,5.71c3.59,0.52,5.02,4.93,2.42,7.46l-28.45,27.73
	c-1.03,1-1.5,2.45-1.26,3.87l6.72,39.16c0.61,3.57-3.14,6.29-6.34,4.61L69.89,110.5c-1.27-0.67-2.79-0.67-4.07,0l-35.16,18.49
	c-3.21,1.69-6.95-1.04-6.34-4.61l6.72-39.16c0.24-1.42-0.23-2.86-1.26-3.87L1.32,53.62c-2.59-2.53-1.16-6.93,2.42-7.46l39.31-5.71
	c1.42-0.21,2.65-1.1,3.29-2.39L63.94,2.44C65.54-0.81,70.17-0.81,71.77,2.44z"/>
</svg>
